   <svg width="521" height="494" viewBox="0 0 521 494" fill="none" xmlns="http://www.w3.org/2000/svg">
<g opacity="0.5">
<path opacity="0.5" fill-rule="evenodd" clip-rule="evenodd" d="M124.127 213.159L101.634 447.668L332.193 388.334L124.127 213.159Z" fill="url(#paint0_linear)"/>
<path opacity="0.5" d="M116.563 452.684L347.686 494L336.936 394.843L116.563 452.684Z" fill="url(#paint1_linear)"/>
<path opacity="0.5" d="M166.077 11.9082L4.75049 201.04H117.679L166.077 11.9082Z" fill="url(#paint2_linear)"/>
<path opacity="0.5" d="M126.653 198.679L375.503 108.768L176.982 2L126.653 198.679Z" fill="url(#paint3_linear)"/>
<path opacity="0.5" d="M380.322 115.635L128.805 206.509L337.931 382.577L380.322 115.635Z" fill="url(#paint4_linear)"/>
<path opacity="0.5" d="M346.074 383.005L519 293.318L387.911 119.549L346.074 383.005Z" fill="url(#paint5_linear)"/>
<path opacity="0.5" d="M199.337 4.82812L383.996 104.141L420.407 46.6443L199.337 4.82812Z" fill="url(#paint6_linear)"/>
<path opacity="0.5" d="M510.627 268.762L426.16 52.709L390.326 109.294L510.627 268.762Z" fill="url(#paint7_linear)"/>
<path opacity="0.5" d="M116.366 209.134H2L92.2347 447.457L116.366 209.134Z" fill="url(#paint8_linear)"/>
<path opacity="0.5" d="M345.146 392.609L355.699 488.045L508.712 307.776L345.146 392.609Z" fill="url(#paint9_linear)"/>
</g>
<defs>
<linearGradient id="paint0_linear" x1="332.193" y1="213.159" x2="144.37" y2="319.313" gradientUnits="userSpaceOnUse">
<stop stop-color="#80C3FF"/>
<stop offset="0.455382" stop-color="#349BF7"/>
<stop offset="1" stop-color="#714DD6"/>
</linearGradient>
<linearGradient id="paint1_linear" x1="347.686" y1="394.843" x2="258.817" y2="513.921" gradientUnits="userSpaceOnUse">
<stop stop-color="#80C3FF"/>
<stop offset="0.455382" stop-color="#349BF7"/>
<stop offset="1" stop-color="#714DD6"/>
</linearGradient>
<linearGradient id="paint2_linear" x1="166.077" y1="11.9082" x2="26.2849" y2="80.4551" gradientUnits="userSpaceOnUse">
<stop stop-color="#80C3FF"/>
<stop offset="0.455382" stop-color="#349BF7"/>
<stop offset="1" stop-color="#714DD6"/>
</linearGradient>
<linearGradient id="paint3_linear" x1="375.503" y1="1.99999" x2="200.57" y2="129.238" gradientUnits="userSpaceOnUse">
<stop stop-color="#80C3FF"/>
<stop offset="0.455382" stop-color="#349BF7"/>
<stop offset="1" stop-color="#714DD6"/>
</linearGradient>
<linearGradient id="paint4_linear" x1="380.322" y1="115.635" x2="171.299" y2="228.851" gradientUnits="userSpaceOnUse">
<stop stop-color="#80C3FF"/>
<stop offset="0.455382" stop-color="#349BF7"/>
<stop offset="1" stop-color="#714DD6"/>
</linearGradient>
<linearGradient id="paint5_linear" x1="519" y1="119.549" x2="356.294" y2="180.943" gradientUnits="userSpaceOnUse">
<stop stop-color="#80C3FF"/>
<stop offset="0.455382" stop-color="#349BF7"/>
<stop offset="1" stop-color="#714DD6"/>
</linearGradient>
<linearGradient id="paint6_linear" x1="420.407" y1="4.82812" x2="330.313" y2="120.116" gradientUnits="userSpaceOnUse">
<stop stop-color="#80C3FF"/>
<stop offset="0.455382" stop-color="#349BF7"/>
<stop offset="1" stop-color="#714DD6"/>
</linearGradient>
<linearGradient id="paint7_linear" x1="510.627" y1="52.709" x2="393.337" y2="90.252" gradientUnits="userSpaceOnUse">
<stop stop-color="#80C3FF"/>
<stop offset="0.455382" stop-color="#349BF7"/>
<stop offset="1" stop-color="#714DD6"/>
</linearGradient>
<linearGradient id="paint8_linear" x1="116.366" y1="209.134" x2="2.13162" y2="240.648" gradientUnits="userSpaceOnUse">
<stop stop-color="#80C3FF"/>
<stop offset="0.455382" stop-color="#349BF7"/>
<stop offset="1" stop-color="#714DD6"/>
</linearGradient>
<linearGradient id="paint9_linear" x1="508.712" y1="307.776" x2="370.503" y2="379.866" gradientUnits="userSpaceOnUse">
<stop stop-color="#80C3FF"/>
<stop offset="0.455382" stop-color="#349BF7"/>
<stop offset="1" stop-color="#714DD6"/>
</linearGradient>
</defs>
</svg>
